<svg width="13" height="12" viewBox="0 0 13 12" fill="none" xmlns="http://www.w3.org/2000/svg">
<g clip-path="url(#clip0_17737_71708)">
<path d="M0.75 3C0.75 2.17157 1.42157 1.5 2.25 1.5H11.25C12.0784 1.5 12.75 2.17157 12.75 3V9C12.75 9.82843 12.0784 10.5 11.25 10.5H2.25C1.42157 10.5 0.75 9.82843 0.75 9V3ZM2.25 2.25C1.83579 2.25 1.5 2.58579 1.5 3V3.16268L6.75 6.31268L12 3.16268V3C12 2.58579 11.6642 2.25 11.25 2.25H2.25ZM12 4.03732L8.46894 6.15596L12 8.32892V4.03732ZM11.9747 9.19397L7.74437 6.5907L6.75 7.18732L5.75563 6.5907L1.52532 9.19397C1.61081 9.51416 1.90286 9.75 2.25 9.75H11.25C11.5971 9.75 11.8892 9.51416 11.9747 9.19397ZM1.5 8.32892L5.03106 6.15596L1.5 4.03732V8.32892Z" fill="#8B929A"/>
</g>
<defs>
<clipPath id="clip0_17737_71708">
<rect width="12" height="12" fill="white" transform="translate(0.75)"/>
</clipPath>
</defs>
</svg>
