<svg width="13" height="12" viewBox="0 0 13 12" fill="none" xmlns="http://www.w3.org/2000/svg">
<path d="M9.87433 6.70482C9.48131 7.50113 8.94934 8.29508 8.40431 9.00753C7.86099 9.71776 7.31582 10.3326 6.90576 10.7704C6.85127 10.8285 6.79924 10.8835 6.75 10.9351C6.70076 10.8835 6.64872 10.8285 6.59424 10.7704C6.18418 10.3326 5.63901 9.71776 5.09568 9.00753C4.55065 8.29508 4.01868 7.50113 3.62567 6.70482C3.2286 5.90031 3 5.14643 3 4.5C3 2.42893 4.67893 0.75 6.75 0.75C8.82107 0.75 10.5 2.42893 10.5 4.5C10.5 5.14643 10.2714 5.90031 9.87433 6.70482ZM6.75 12C6.75 12 11.25 7.73528 11.25 4.5C11.25 2.01472 9.23528 0 6.75 0C4.26472 0 2.25 2.01472 2.25 4.5C2.25 7.73528 6.75 12 6.75 12Z" fill="#8B929A"/>
<path d="M6.75 6C5.92157 6 5.25 5.32843 5.25 4.5C5.25 3.67157 5.92157 3 6.75 3C7.57843 3 8.25 3.67157 8.25 4.5C8.25 5.32843 7.57843 6 6.75 6ZM6.75 6.75C7.99264 6.75 9 5.74264 9 4.5C9 3.25736 7.99264 2.25 6.75 2.25C5.50736 2.25 4.5 3.25736 4.5 4.5C4.5 5.74264 5.50736 6.75 6.75 6.75Z" fill="#8B929A"/>
</svg>
