<svg width="13" height="12" viewBox="0 0 13 12" fill="none" xmlns="http://www.w3.org/2000/svg">
<path d="M0.75 6C0.75 2.68629 3.43629 0 6.75 0C10.0637 0 12.75 2.68629 12.75 6C12.75 9.31371 10.0637 12 6.75 12C3.43629 12 0.75 9.31371 0.75 6ZM6.375 0.807415C5.87293 0.960959 5.37347 1.42292 4.95956 2.19899C4.82998 2.44196 4.71225 2.71022 4.60874 3H6.375V0.807415ZM3.81716 3C3.95097 2.58104 4.11244 2.19359 4.29779 1.84605C4.43183 1.59473 4.58147 1.35931 4.74545 1.14626C3.81089 1.53265 3.01222 2.18109 2.44101 3H3.81716ZM3.38134 5.625C3.40364 4.96738 3.48427 4.33627 3.615 3.75H2.00522C1.73199 4.32515 1.56027 4.95787 1.51318 5.625H3.38134ZM4.38515 3.75C4.24504 4.32373 4.15614 4.95584 4.13179 5.625H6.375V3.75H4.38515ZM7.125 3.75V5.625H9.3682C9.34386 4.95584 9.25495 4.32373 9.11485 3.75H7.125ZM4.13179 6.375C4.15614 7.04416 4.24504 7.67626 4.38515 8.25H6.375V6.375H4.13179ZM7.125 6.375V8.25H9.11485C9.25495 7.67626 9.34386 7.04416 9.3682 6.375H7.125ZM4.60874 9C4.71225 9.28977 4.82998 9.55803 4.95956 9.801C5.37347 10.5771 5.87293 11.039 6.375 11.1926V9H4.60874ZM4.74545 10.8537C4.58147 10.6407 4.43183 10.4053 4.29779 10.1539C4.11244 9.8064 3.95097 9.41895 3.81716 9H2.44101C3.01222 9.8189 3.81089 10.4673 4.74545 10.8537ZM3.615 8.25C3.48427 7.66372 3.40364 7.03262 3.38134 6.375H1.51318C1.56027 7.04213 1.73199 7.67484 2.00522 8.25H3.615ZM8.75455 10.8537C9.6891 10.4673 10.4878 9.8189 11.059 9H9.68284C9.54903 9.41895 9.38756 9.8064 9.2022 10.1539C9.06816 10.4053 8.91852 10.6407 8.75455 10.8537ZM7.125 9V11.1926C7.62707 11.039 8.12653 10.5771 8.54044 9.801C8.67002 9.55803 8.78775 9.28977 8.89125 9H7.125ZM9.88499 8.25H11.4948C11.768 7.67484 11.9397 7.04213 11.9868 6.375H10.1187C10.0964 7.03262 10.0157 7.66372 9.88499 8.25ZM11.9868 5.625C11.9397 4.95787 11.768 4.32515 11.4948 3.75H9.88499C10.0157 4.33627 10.0964 4.96738 10.1187 5.625H11.9868ZM9.2022 1.84605C9.38756 2.19359 9.54903 2.58104 9.68284 3H11.059C10.4878 2.18109 9.6891 1.53265 8.75455 1.14626C8.91852 1.35931 9.06816 1.59473 9.2022 1.84605ZM8.89125 3C8.78775 2.71022 8.67002 2.44196 8.54044 2.19899C8.12653 1.42292 7.62707 0.960959 7.125 0.807415V3H8.89125Z" fill="#8B929A"/>
</svg>
