<svg width="13" height="12" viewBox="0 0 13 12" fill="none" xmlns="http://www.w3.org/2000/svg">
<path d="M3.4904 0.996368C3.30257 0.754871 2.94559 0.732645 2.72925 0.94898L1.95381 1.72442C1.5912 2.08703 1.4579 2.60074 1.61633 3.05135C2.25253 4.86093 3.29411 6.56003 4.74204 8.00796C6.18997 9.45589 7.88907 10.4975 9.69865 11.1337C10.1493 11.2921 10.663 11.1588 11.0256 10.7962L11.801 10.0207C12.0174 9.80441 11.9951 9.44743 11.7536 9.2596L10.024 7.91432C9.90062 7.81836 9.73998 7.78446 9.58836 7.82236L7.94656 8.23281C7.50061 8.3443 7.02887 8.21363 6.70384 7.8886L4.8614 6.04616C4.53637 5.72113 4.4057 5.24939 4.51719 4.80344L4.92764 3.16165C4.96555 3.01002 4.93164 2.84938 4.83568 2.72601L3.4904 0.996368ZM2.16358 0.383307C2.72017 -0.173279 3.63862 -0.116098 4.12187 0.505226L5.46715 2.23487C5.71403 2.55228 5.80126 2.96556 5.70374 3.35567L5.29329 4.99747C5.24995 5.1708 5.30074 5.35416 5.42708 5.48049L7.26951 7.32293C7.39585 7.44926 7.5792 7.50005 7.75253 7.45672L9.39433 7.04627C9.78444 6.94874 10.1977 7.03598 10.5151 7.28285L12.2448 8.62813C12.8661 9.11138 12.9233 10.0298 12.3667 10.5864L11.5913 11.3619C11.0365 11.9167 10.2067 12.1603 9.43331 11.8884C7.51316 11.2133 5.71079 10.1081 4.17637 8.57363C2.64195 7.03921 1.53671 5.23684 0.861629 3.31669C0.589738 2.54334 0.833348 1.71354 1.38814 1.15875L2.16358 0.383307Z" fill="#8B929A"/>
</svg>
